<svg id="Capa_2" data-name="Capa 2" xmlns="http://www.w3.org/2000/svg" viewBox="0 0 1418.97 1432.97"><defs><style>.cls-1{fill:#ea830a;}.cls-2{fill:#fff;}</style></defs><rect class="cls-1" x="2" y="3.1" width="1412.78" height="1428.06"/><path class="cls-2" d="M522.65,1054.31c-14.55-10.74-27.84-21.32-43.59-35A718.64,718.64,0,0,1,426,968,638.14,638.14,0,0,1,324.11,822.48c-51.33-100.76-75-215.34-76.69-328-.68-46.3,2.2-93.36,10.21-137.28a485.58,485.58,0,0,1,14.06-58c2.47-7.88,5.25-15.64,8.23-23.33.29-.75,3.38-7.83.85-2.12.6-1.35,1.18-2.71,1.82-4,1.82-3.8,3.62-7.61,5.61-11.32,3-5.58,6.37-10.84,9.9-16.09,3.39-5-3.9,4.42,0,0,.71-.81,1.36-1.69,2.1-2.47,2.08-2.22,4.3-4.3,6.39-6.49,4.57-4.81-4.55,1.82,1.16-.89a40,40,0,0,0,5.55-3c-7.5,5.23-2.52,0,.41.45a61.35,61.35,0,0,1,10,2.71c16.25,6.48,31,19.73,42.92,32.3,12.31,12.93,20.83,24.8,29.69,43.35a114.13,114.13,0,0,1,10.56,35.46,113.21,113.21,0,0,1,.2,18.6c-.21,2.91-3.87,7.09-.38,2.2,4.24-5.95,2.6-2.77,1.06-1.57-.44.34,6.77-5.85,9.3-2.72,3.34,4.12-2.84,8.15,3.92.17,10.52-12.4,25.62-22.2,40.33-28.81,19.95-9,45.06-11.93,67.68-9.09,13.12,1.64,26.59,5.33,38.21,11.71,7.78,4.27,19.78,11.46,21,19.87V339.86c-1.23,7.78,4.94-8.41,5.87-5.86.42,1.15-6,.48-5.84.54,5.35,2.42,1.76-2.6.91-6.82-3.15-15.69-1.94-32.42,1.78-47.9,1.22-5.09,2.68-10.13,4.38-15.08.82-2.41,1.72-4.78,2.64-7.14-2.25,5.8-.28.54.3-.61,2-4.08,4.11-8,6.52-11.91,9.55-15.36,23.73-33.77,41-39.84,5.38-1.89,5.81-1.69,11.52-1.62,1.4,0,5,.8-.69-.22,2.18.39,4.27,1,6.42,1.51.78.18,7.75,2.81,2.26.5a68.6,68.6,0,0,1,6.48,3.23c2.22,1.22,4.33,2.58,6.48,3.92,1.46,1,2.89,2,4.31,3-1.79-1.47-1.44-1.18,1.07.86,43,35.36,68.67,92.44,86.27,144.13a532.27,532.27,0,0,1,28.35,156c.66,21.61.26,43.37-2.34,64.86-2,16.41-8.43,40.17-16.65,54.82a31.81,31.81,0,0,1-13.79,13.48,33.59,33.59,0,0,1-11.51,2.84,49.78,49.78,0,0,1-21.91-3.67c-8.92-3.51-18.27-11.45-21.18-16a59,59,0,0,1-8.53-27.54c-3.34-53.57,26-111.71,58.78-153.39a248.73,248.73,0,0,1,72.31-62.43q7.76-4.43,15.81-8.31c2.23-1.07,4.48-2.07,6.73-3.12,6.54-3-3.44,1.33.29-.14a243.11,243.11,0,0,1,36.06-11.2c30.32-6.82,62.44-6.57,92.84-.27a289,289,0,0,1,38.52,10.83c11.9,4.24,13.59,4.95,24.53,10.34,41.63,20.52,73.47,53.94,97,93.55,31.46,52.88,53.85,118.22,40.22,179.66-2.74,12.35-6.76,21.87-14.27,31.89-5.69,7.6,1.07-.18-1.11,1.41-1.33,1-2.74,1.84-4.14,2.69-5.68,3.43-9.32,5.28-16.38,6.48-22.56,3.84-34.93-18.81-40.81-33.83-17.58-44.93-7.51-100.94,11-145.85a203.63,203.63,0,0,1,13.84-26.31c.9-1.4,1.83-2.76,2.76-4.14,4.33-6.43-3.31,3.58,1.46-2,1.39-1.63,2.79-3.24,4.29-4.77,1.27-1.29,7.92-6.18,1.81-2.13.92-.61,3.17-2.69,4.32-2.7,5.24-.05-5.76,1.39-.66.42,5.42-1-6.79,1-1.48.33-6.82.81.39.65-5.29-1.37,1.62.58,5.52,4.38.89.23a25.3,25.3,0,0,1,3.06,3c4.61,6-2.94-4.66,1.75,2a97.05,97.05,0,0,1,5.64,9.19c12.85,23.3,19.4,51.62,24.55,78.46a406.85,406.85,0,0,1,7.15,97c-3.09,60.46-24,116.76-50.9,170.3-95.2,189.39-279.37,322.54-490.48,349.86a686.87,686.87,0,0,1-78,5.39c-34.19.51-34.29,53.69,0,53.17,173.81-2.62,338.34-67.93,465.81-185.39C1106,994.25,1164.5,908.3,1204,813.22c42.57-102.55,45.85-225.09,1.86-328.11-14.47-33.87-45.67-72.25-86-48.72-32.6,19-49.62,62.91-59.86,97-13.28,44.3-18.8,94.92-6,140,14.41,50.6,55.87,96,113.13,80.25,51.84-14.22,70.56-63.54,74.33-112.86,4.58-60.15-13.61-121.34-42.87-173.39-25.22-44.88-57.29-84.34-100.75-112.76-26.59-17.39-57.55-29.56-88.27-37.14-103.51-25.56-211,8.43-280.31,89.67-34.36,40.29-61.62,89.33-74.07,141-10.56,43.89-10.91,97.85,25.52,130.44,37.5,33.55,100.4,38.39,134.54-2.25,27-32.17,33.44-77.43,35.64-118,5-92.05-14.29-185.33-52.62-268.92C764.69,216.25,684.1,100.8,595.12,175c-23.57,19.67-41.25,46.65-51.18,75.59-15.38,44.86-20,142.39,50.83,137,33.62-2.58,57.86-33.34,37.67-64.84-14.73-23-40-37.66-65.37-46C519.29,261.08,463.52,267,420.44,293c-24.85,15-57.19,40.19-55.9,72.47,1.19,29.78,33.79,54.42,62.8,45.46,54.72-16.88,31-98.77,12.46-134.3C410.3,220.11,323,136.08,263.61,201c-20.82,22.76-33.1,52.59-42.41,81.58-13,40.57-19.72,83.21-23.68,125.55C176.91,629,244.22,859.36,401.34,1019.08c29.18,29.66,61,56.45,94.47,81.14,11.56,8.53,29.67,1.92,36.37-9.54,7.91-13.51,2.05-27.82-9.53-36.37Z"/></svg>
